<?xml version="1.0" encoding="UTF-8"?>
<svg id="Calque_1" xmlns="http://www.w3.org/2000/svg" version="1.1" viewBox="0 0 1000 1000">
  <!-- Generator: Adobe Illustrator 29.5.1, SVG Export Plug-In . SVG Version: 2.1.0 Build 141)  -->
  <path d="M500,664.892c-160.609,0-291.276-130.666-291.276-291.276S339.391,82.319,500,82.319s291.276,130.675,291.276,291.298-130.666,291.276-291.276,291.276Z" fill="#fff"/>
  <path d="M500,158.637c118.527,0,214.957,96.438,214.957,214.979s-96.43,214.957-214.957,214.957-214.957-96.43-214.957-214.957,96.43-214.979,214.957-214.979M500,6c-203.029,0-367.594,164.587-367.594,367.616s164.565,367.594,367.594,367.594,367.594-164.587,367.594-367.594S703.029,6,500,6h0Z"/>
  <rect x="208.724" y="898.58" width="582.551" height="19.104" fill="#fff"/>
  <polygon points="867.594 822.261 132.406 822.261 132.406 994 867.594 994 867.594 822.261 867.594 822.261"/>
</svg>