<?xml version="1.0" encoding="UTF-8"?>
<svg id="Calque_1" xmlns="http://www.w3.org/2000/svg" version="1.1" viewBox="0 0 2000 1000">
  <!-- Generator: Adobe Illustrator 29.5.1, SVG Export Plug-In . SVG Version: 2.1.0 Build 141)  -->
  <g>
    <g>
      <path d="M365.842,556.652c-54.81,0-99.402-44.592-99.402-99.402s44.592-99.41,99.402-99.41,99.402,44.595,99.402,99.41-44.592,99.402-99.402,99.402Z" fill="#fff"/>
      <path d="M365.842,383.884c40.449,0,73.357,32.911,73.357,73.365s-32.908,73.357-73.357,73.357-73.357-32.908-73.357-73.357,32.908-73.365,73.357-73.365M365.842,331.795c-69.287,0-125.447,56.168-125.447,125.455s56.16,125.447,125.447,125.447,125.447-56.168,125.447-125.447-56.16-125.455-125.447-125.455h0Z"/>
    </g>
    <g>
      <rect x="266.44" y="636.401" width="198.805" height="6.519" fill="#fff"/>
      <polygon points="491.289 610.356 240.395 610.356 240.395 668.965 491.289 668.965 491.289 610.356 491.289 610.356"/>
    </g>
  </g>
  <g>
    <g>
      <path d="M651.162,510.738c-12.572,0-24.404-2.321-35.498-6.96-11.095-4.639-20.776-10.988-29.043-19.046-8.27-8.056-14.787-17.528-19.552-28.411-4.768-10.883-7.15-22.526-7.15-34.928,0-12.485,2.383-24.171,7.15-35.055,4.766-10.883,11.283-20.375,19.552-28.474,8.267-8.099,17.949-14.468,29.043-19.109,11.093-4.639,22.926-6.96,35.498-6.96,12.655,0,24.529,2.321,35.625,6.96,11.093,4.641,20.774,11.01,29.043,19.109,8.267,8.1,14.785,17.591,19.552,28.474,4.765,10.883,7.15,22.57,7.15,35.055,0,12.402-2.385,24.045-7.15,34.928-4.768,10.883-11.285,20.355-19.552,28.411-8.27,8.058-17.951,14.407-29.043,19.046-11.095,4.639-22.969,6.96-35.625,6.96ZM651.162,496.691c10.545,0,20.458-1.916,29.74-5.752,9.28-3.836,17.379-9.145,24.298-15.932,6.917-6.786,12.38-14.751,16.388-23.898,4.006-9.147,6.011-19.03,6.011-29.652s-2.005-20.547-6.011-29.777c-4.008-9.23-9.471-17.238-16.388-24.025-6.919-6.786-15.018-12.117-24.298-15.995-9.282-3.878-19.194-5.818-29.74-5.818s-20.459,1.94-29.739,5.818c-9.282,3.877-17.359,9.208-24.235,15.995-6.877,6.787-12.319,14.795-16.325,24.025-4.008,9.23-6.011,19.157-6.011,29.777s2.003,20.505,6.011,29.652c4.006,9.147,9.47,17.112,16.389,23.898,6.917,6.787,15.016,12.096,24.298,15.932,9.28,3.836,19.151,5.752,29.613,5.752Z"/>
      <path d="M780.245,335.465h14.933v158.316h88.459v13.794h-103.393v-172.11Z"/>
      <path d="M939.193,441.261l-70.996-105.797h17.971l60.428,92.256h.255l60.173-92.256h18.098l-70.996,105.797.127,66.313h-15.06v-66.313Z"/>
      <path d="M1053.975,335.465h12.782l70.362,92.256.126-.126,69.983-92.129h13.161v172.11h-14.933v-147.559l-65.934,86.562h-5.062l-65.553-86.562v147.559h-14.934v-172.11Z"/>
      <path d="M1272.023,335.465h69.097c8.015,0,15.396,1.372,22.146,4.113,6.749,2.743,12.57,6.539,17.465,11.39,4.892,4.853,8.688,10.63,11.39,17.337,2.699,6.708,4.05,14.028,4.05,21.957,0,8.016-1.351,15.397-4.05,22.146-2.701,6.75-6.477,12.55-11.326,17.401-4.853,4.852-10.611,8.649-17.274,11.39-6.666,2.742-14.006,4.113-22.021,4.113h-54.543v62.263h-14.934v-172.11ZM1341.12,431.77c5.736,0,11.052-1.054,15.946-3.164,4.892-2.108,9.131-5.019,12.718-8.732,3.585-3.711,6.392-8.099,8.416-13.161s3.037-10.545,3.037-16.452c0-5.736-1.034-11.093-3.101-16.072-2.068-4.977-4.894-9.321-8.479-13.035-3.587-3.711-7.868-6.644-12.846-8.795-4.979-2.151-10.377-3.227-16.198-3.227h-53.657v82.638h54.163Z"/>
    </g>
    <g>
      <path d="M1514.603,511.751c-10.969,0-21.178-1.625-30.626-4.872-9.449-3.247-17.653-7.91-24.614-13.984-6.96-6.074-12.424-13.478-16.388-22.209-3.967-8.732-5.948-18.54-5.948-29.423v-105.797h47.583v102.351c0,4.477.633,8.613,1.898,12.414,1.266,3.801,3.164,7.073,5.695,9.818,2.53,2.745,5.673,4.878,9.428,6.396,3.753,1.521,8.077,2.28,12.972,2.28,4.809,0,9.068-.759,12.781-2.28,3.712-1.519,6.812-3.652,9.302-6.396,2.487-2.745,4.386-6.017,5.694-9.818,1.308-3.8,1.962-7.98,1.962-12.541v-102.224h47.71v105.797c0,10.124-1.794,19.511-5.379,28.158-3.587,8.649-8.731,16.094-15.438,22.336-6.708,6.245-14.851,11.136-24.425,14.68-9.576,3.543-20.312,5.315-32.207,5.315Z"/>
      <path d="M1686.206,512.13c-13.838,0-25.5-1.752-34.991-5.251-9.491-3.5-17.147-8.078-22.97-13.731-5.821-5.651-9.997-12.001-12.528-19.046-2.531-7.043-3.796-14.152-3.796-21.324h47.583c0,6.328,2.256,11.158,6.771,14.49,4.513,3.334,11.073,4.999,19.679,4.999,4.892,0,8.963-.295,12.212-.886,3.247-.589,5.842-1.475,7.783-2.657,1.939-1.181,3.31-2.678,4.113-4.493.801-1.813,1.202-3.901,1.202-6.264,0-2.108-.592-3.965-1.772-5.568-1.182-1.602-2.995-3.079-5.441-4.429-2.448-1.349-5.549-2.658-9.302-3.923-3.755-1.266-8.247-2.573-13.478-3.923-4.809-1.349-9.788-2.826-14.933-4.43-5.147-1.602-10.124-3.48-14.934-5.631-4.809-2.151-9.364-4.661-13.667-7.53-4.303-2.867-8.059-6.201-11.264-9.998-3.207-3.796-5.738-8.141-7.593-13.035-1.856-4.892-2.784-10.419-2.784-16.579,0-8.014,1.455-15.206,4.366-21.577,2.91-6.369,7.255-11.811,13.034-16.325,5.778-4.512,12.908-7.973,21.388-10.377,8.479-2.404,18.286-3.606,29.423-3.606,11.812,0,22.083,1.309,30.815,3.923,8.732,2.616,15.987,6.35,21.767,11.2,5.778,4.853,10.103,10.757,12.972,17.717,2.867,6.96,4.303,14.787,4.303,23.476h-47.836c0-1.602-.297-3.291-.886-5.062-.592-1.772-1.709-3.396-3.354-4.873-1.645-1.475-3.944-2.699-6.896-3.67-2.954-.969-6.792-1.455-11.517-1.455-4.303,0-7.763.338-10.377,1.012-2.616.676-4.619,1.519-6.011,2.531-1.393,1.013-2.322,2.173-2.784,3.48-.465,1.309-.696,2.594-.696,3.86,0,2.025.589,3.84,1.771,5.441,1.181,1.604,3.12,3.101,5.821,4.493,2.699,1.392,6.243,2.743,10.631,4.05,4.386,1.309,9.744,2.638,16.071,3.986,9.28,2.025,17.696,4.599,25.247,7.72,7.55,3.122,14.025,6.96,19.426,11.516,5.398,4.556,9.555,9.934,12.466,16.135,2.91,6.201,4.365,13.395,4.365,21.577,0,8.858-1.814,16.663-5.441,23.412-3.628,6.751-8.69,12.382-15.186,16.895-6.498,4.514-14.237,7.931-23.223,10.25s-18.836,3.48-29.55,3.48Z"/>
    </g>
    <g>
      <path d="M570.076,551.026v-1.18h30.107c8.804,0,15.04.368,18.709,1.101,3.668.735,7.179,2.136,10.533,4.205,3.353,2.072,6.21,5.059,8.568,8.962,2.358,3.905,3.538,8.346,3.538,13.324,0,9.8-4.822,17.53-14.464,23.189,8.332,1.415,14.621,4.862,18.866,10.337,4.245,5.476,6.367,12.119,6.367,19.927,0,7.285-1.821,13.913-5.463,19.888-3.643,5.975-7.809,9.944-12.498,11.909-4.691,1.965-11.255,2.948-19.691,2.948h-44.728v-1.179c3.563,0,5.842-.72,6.839-2.161.995-1.439,1.494-5.119,1.494-11.037v-87.193c0-4.189-.118-7.044-.353-8.562-.236-1.518-1.01-2.644-2.319-3.377-1.311-.734-3.144-1.101-5.503-1.101ZM591.614,552.283v50.859h14.071c9.537,0,15.865-2.724,18.984-8.175,3.117-5.45,4.677-10.874,4.677-16.272,0-5.817-1.206-10.677-3.616-14.582-2.411-3.903-5.935-6.851-10.572-8.843-4.638-1.991-11.465-2.987-20.478-2.987h-3.066ZM600.654,605.579h-9.04v36.71c0,5.084.196,8.385.589,9.905.393,1.521,1.284,3.119,2.673,4.796,1.388,1.678,3.628,3.026,6.721,4.048,3.092,1.022,7.546,1.533,13.363,1.533,9.013,0,15.38-2.084,19.102-6.25,3.72-4.166,5.581-10.336,5.581-18.512,0-8.49-1.651-15.407-4.952-20.752s-7.035-8.594-11.202-9.747-11.779-1.73-22.835-1.73Z"/>
      <path d="M731.222,549.846h17.372v1.18c-2.201.157-4.009.681-5.424,1.571-1.415.892-3.04,2.726-4.874,5.503l-28.299,42.926v53.003c0,4.287.555,7.095,1.665,8.428,1.111,1.334,3.515,2,7.217,2v1.179h-30.971v-1.179c5.921.367,8.882-1.963,8.882-6.992l-.157-3.3v-48.941l-28.378-46.967c-2.987-4.978-6.315-7.389-9.983-7.232v-1.18h27.355v1.18c-2.55,0-3.823.967-3.823,2.902,0,.994.654,2.536,1.965,4.627l23.357,38.535,25.507-38.834c.471-.42.995-1.192,1.572-2.319.576-1.126.865-1.899.865-2.319,0-1.729-1.126-2.594-3.379-2.594h-.471v-1.18Z"/>
      <path d="M866.663,548.117c16.245,0,29.529,4.94,39.854,14.818,10.323,9.879,15.486,22.206,15.486,36.985,0,19.023-5.974,35.033-17.923,48.029-11.948,12.997-27.801,19.495-47.558,19.495-16.036,0-29.163-5.241-39.382-15.722-10.219-10.481-15.328-23.059-15.328-37.732,0-9.905,2.463-20.071,7.389-30.5,4.925-10.428,12.342-18.931,22.246-25.508,9.904-6.576,21.643-9.866,35.216-9.866ZM866.191,661.312c7.965,0,15.826-2.135,23.582-6.406,7.755-4.271,13.861-10.153,18.316-17.647,4.454-7.494,6.682-15.197,6.682-23.111,0-11.213-3.001-21.407-9.001-30.578-6.001-9.171-13.783-16.351-23.346-21.539-9.564-5.187-18.408-7.782-26.53-7.782-11.477,0-21.892,4.324-31.247,12.97-9.354,8.648-14.031,19.391-14.031,32.229,0,16.403,5.711,30.815,17.136,43.235,11.424,12.42,24.237,18.63,38.439,18.63Z"/>
      <path d="M933.637,551.026v-1.18h32.858c8.332,0,14.358.185,18.079.551,3.721.368,7.533,1.588,11.438,3.658,3.903,2.073,6.851,4.878,8.843,8.418,1.991,3.54,2.987,7.88,2.987,13.019,0,5.874-1.77,11.473-5.308,16.796-3.537,5.323-8.53,9.821-14.976,13.491l8.175,12.566c1.782,3.142,6.513,10.027,14.19,20.657,7.678,10.63,13.613,17.109,17.806,19.441,4.192,2.333,8.254,3.498,12.184,3.498,3.878,0,8.332-1.494,13.363-4.481l.472,1.572c-6.284,5.136-14.45,7.704-24.502,7.704-6.702,0-12.461-1.983-17.278-5.95-4.818-3.967-13.201-14.854-25.152-32.659-.105-.103-.158-.208-.158-.313l-11.637-17.911-10.317.314h-9.374v44.271c0,3.559.467,6.109,1.402,7.653.934,1.544,3.192,2.316,6.774,2.316v1.179h-29.871v-1.179c3.72-.158,6.039-.942,6.957-2.356.916-1.414,1.376-4.295,1.376-8.643v-91.986c0-2.984-.394-5.458-1.179-7.422s-3.171-2.972-7.153-3.024ZM955.332,552.912v54.318h12.13c9.555,0,16.644-2.252,21.265-6.76,4.621-4.507,6.931-10.428,6.931-17.766,0-7.126-2.271-13.874-6.813-20.241-4.543-6.367-12.538-9.551-23.984-9.551h-9.53Z"/>
      <path d="M1061.295,551.026v-1.18h33.016c11.738,0,20.267,1.313,25.587,3.937,5.318,2.623,9.197,5.89,11.634,9.798,2.437,3.91,3.655,9.066,3.655,15.468,0,9.814-3.38,17.186-10.141,22.119-6.76,4.932-15.931,7.294-27.512,7.084v-1.179c7.336,0,13.297-2.253,17.883-6.761,4.585-4.507,6.877-10.428,6.877-17.765,0-5.711-1.114-10.781-3.341-15.21-2.228-4.428-5.358-7.795-9.394-10.101-4.036-2.305-10.193-3.458-18.473-3.458h-8.254v99.054c0,5.603.63,8.942,1.887,10.015,1.258,1.073,3.642,1.611,7.153,1.611v1.179h-30.579v-1.179c5.45,0,8.176-2.487,8.176-7.463v-95.836c0-4.084-.524-6.794-1.572-8.129s-3.249-2.003-6.603-2.003Z"/>
      <path d="M1231.561,607.86h-63.594v44.509c0,4.187.197,6.856.589,8.007.394,1.152,1.127,2.12,2.201,2.905,1.073.785,2.948,1.177,5.621,1.177v1.179h-29.95v-1.179c5.45.367,8.176-2.277,8.176-7.935v-93.085c0-5.289-.433-8.64-1.297-10.054s-3.158-2.2-6.878-2.357v-1.18h29.95v1.18c-3.302.21-5.53.838-6.681,1.886-1.154,1.049-1.73,3.197-1.73,6.446v45.278h63.594v-41.426c0-4.716-.407-7.927-1.219-9.63s-3.079-2.554-6.799-2.554v-1.18h29.556v1.18c-2.337,0-4.076.275-5.217.825-1.143.55-1.92,1.4-2.336,2.551-.415,1.153-.623,4.086-.623,8.798v88.844c0,4.557.208,7.398.623,8.523.416,1.127,1.142,2.056,2.181,2.789,1.037.733,2.829,1.1,5.372,1.1v1.179h-29.556v-1.179c3.196,0,5.332-.654,6.406-1.963,1.073-1.308,1.612-4.841,1.612-10.598v-44.037Z"/>
      <path d="M1295.862,549.846v1.18c-1.52-.158-3.211.078-5.07.707-1.862.629-2.962,1.545-3.302,2.749-.341,1.205-.511,4.059-.511,8.562v88.844c0,4.818.196,7.764.589,8.837.393,1.073,1.152,1.964,2.279,2.671,1.127.708,3.131,1.06,6.014,1.06v1.179h-30.893v-1.179c3.878,0,6.289-.746,7.232-2.238.944-1.492,1.415-4.883,1.415-10.174v-87.979c0-5.499-.524-9.098-1.571-10.801-1.049-1.702-3.408-2.447-7.075-2.238v-1.18h30.893Z"/>
      <path d="M1407.249,555.663l4.324,12.263h-1.155c-11.209-11.163-24.406-16.744-39.595-16.744-15.766,0-28.505,4.691-38.221,14.071-9.716,9.382-14.573,20.727-14.573,34.038,0,8.228,2.162,17.687,6.485,28.377,4.324,10.691,11.149,19.483,20.477,26.373,9.327,6.891,20.622,10.336,33.88,10.336,8.699,0,17.228-1.401,25.587-4.205,8.358-2.803,14.582-6.564,18.67-11.28l1.021.314-8.096,12.42c-13.102,2.831-21.605,4.507-25.508,5.032-3.905.523-9.133.786-15.682.786-24.265,0-41.623-5.621-52.078-16.862-10.455-11.24-15.682-24.694-15.682-40.365,0-10.584,2.685-20.764,8.057-30.539,5.371-9.773,13.114-17.477,23.228-23.11,10.114-5.633,21.669-8.451,34.666-8.451,6.498,0,12.118.589,16.861,1.768,4.742,1.18,8.687,2.398,11.831,3.656l5.188,1.965c.158.052.262.105.314.157Z"/>
    </g>
  </g>
</svg>